#!OML:ASF I:\Actors\actors\Patient Classification 2\Patient 1\Session 1\actor1.ASF
:FULLY-SPECIFIED
:DEGREES
511
root -0.443972 17.987 4.08379 40.3793 9.31586 -3.19623
lowerback 25.7141 -1.15596 2.10458
upperback -6.06676 -0.938465 -0.473618
thorax -21.3134 -0.701561 -1.32586
lowerneck -9.84527 -5.10613 -2.61017
upperneck -30.317 -5.52001 7.1231
head -7.5142 -2.92255 3.01445
rclavicle -7.15625e-015 -6.36111e-015
rhumerus -61.701 5.96549 -94.5746
rradius 124.485
rwrist 18.9892
rhand -9.38845 -45.8676
rfingers 7.12502
rthumb 16.5725 -75.18
lclavicle -7.15625e-015 -6.36111e-015
lhumerus -57.6431 -17.3454 98.7445
lradius 129.623
lwrist -9.37832
lhand 0.454097 -14.0654
lfingers 7.12502
lthumb 26.0252 14.1721
rfemur -59.8541 -12.041 25.3314
rtibia 34.5358
rfoot -19.9105 -4.41669
rtoes -6.53252
lfemur -70.6142 5.1398 -12.7064
ltibia 44.328
lfoot -14.1312 -0.957572
ltoes -55.1778
512
root -0.444681 18.0145 4.10111 40.1292 9.29665 -3.30529
lowerback 25.5986 -0.965812 2.45086
upperback -5.9475 -0.561462 -0.465673
thorax -21.0769 -0.586704 -1.67258
lowerneck -10.8958 -5.63051 -3.60568
upperneck -30.1896 -6.10765 7.4907
head -7.22333 -3.11131 3.27663
rclavicle -4.77083e-015 -1.07344e-014
rhumerus -61.2141 5.19734 -93.8863
rradius 124.333
rwrist 19.0022
rhand -9.31588 -45.7522
rfingers 7.12502
rthumb 16.6424 -75.0587
lclavicle -4.77083e-015 -1.07344e-014
lhumerus -57.3992 -17.8302 99.3546
lradius 129.297
lwrist -9.4784
lhand 0.446201 -14.0334
lfingers 7.12502
lthumb 26.0177 14.2052
rfemur -59.2174 -12.1918 25.5658
rtibia 33.8308
rfoot -19.5472 -4.33435
rtoes -6.46423
lfemur -70.052 5.28423 -12.6855
ltibia 43.9086
lfoot -14.0701 -1.03865
ltoes -55.1421
513
root -0.445158 18.038 4.11788 39.9168 9.25572 -3.40928
lowerback 25.4011 -0.971875 2.47172
upperback -6.03194 -0.570046 -0.477847
thorax -21.0768 -0.595322 -1.69615
lowerneck -11.0363 -5.71842 -3.70622
upperneck -30.2205 -6.20246 7.57429
head -7.19955 -3.14987 3.31906
rclavicle -3.97569e-016 -4.37326e-015
rhumerus -61.2116 4.9872 -93.8994
rradius 124.187
rwrist 19.0021
rhand -9.15718 -45.7915
rfingers 7.12502
rthumb 16.7951 -75.0851
lclavicle -3.97569e-016 -4.37326e-015
lhumerus -57.7183 -17.7002 99.513
lradius 129.129
lwrist -9.56778
lhand 0.533694 -14.0504
lfingers 7.12502
lthumb 26.1015 14.1759
rfemur -58.6728 -12.3787 25.8324
rtibia 33.1902
rfoot -19.1357 -4.22991
rtoes -6.68743
lfemur -69.5503 5.49719 -12.7325
ltibia 43.5143
lfoot -14.0216 -1.20431
ltoes -55.046
514
root -0.440596 18.0573 4.12635 39.7586 9.33721 -3.41863
lowerback 25.2402 -1.08074 2.65269
upperback -6.16063 -0.672674 -0.539677
thorax -21.1642 -0.6696 -1.82706
lowerneck -11.0555 -5.76071 -3.73392
upperneck -30.3208 -6.2408 7.64691
head -7.22483 -3.16911 3.35168
rclavicle 1.39149e-014 1.23246e-014
rhumerus -61.2916 4.79989 -93.9961
rradius 124.069
rwrist 19.0722
rhand -8.93511 -45.821
rfingers 7.12502
rthumb 17.0089 -75.0963
lclavicle 1.39149e-014 1.23246e-014
lhumerus -58.1208 -17.5606 99.6099
lradius 128.991
lwrist -9.63717
lhand 0.563432 -14.104
lfingers 7.12502
lthumb 26.1299 14.1181
rfemur -58.2424 -12.7538 26.1192
rtibia 32.6033
rfoot -18.6955 -4.1127
rtoes -6.98313
lfemur -69.1512 5.54159 -12.7822
ltibia 43.1254
lfoot -13.895 -1.3814
ltoes -54.8774
515
root -0.422882 18.0664 4.12299 39.7032 9.47789 -3.32613
lowerback 25.0968 -1.25876 3.02385
upperback -6.3192 -0.813077 -0.643477
thorax -21.3089 -0.789867 -2.09757
lowerneck -11.0565 -5.81594 -3.84472
upperneck -30.4452 -6.28776 7.74585
head -7.25633 -3.1856 3.40879
rclavicle -3.26007e-014 1.43125e-014
rhumerus -61.3861 4.63153 -94.0634
rradius 123.954
rwrist 19.113
rhand -8.88569 -45.8288
rfingers 7.12502
rthumb 17.0565 -75.1
lclavicle -3.26007e-014 1.43125e-014
lhumerus -58.5143 -17.4249 99.7329
lradius 128.84
lwrist -9.73756
lhand 0.476363 -14.2038
lfingers 7.12502
lthumb 26.0466 14.0306
rfemur -58.0326 -13.3555 26.4319
rtibia 32.0736
rfoot -18.1492 -3.91551
rtoes -7.40414
lfemur -68.9162 5.30055 -12.777
ltibia 42.7535
lfoot -13.7535 -1.33082
ltoes -54.7245
516
root -0.429383 18.0862 4.13477 39.5117 9.52561 -3.28267
lowerback 24.9715 -1.29876 2.98737
upperback -6.40587 -0.888522 -0.665835
thorax -21.3567 -0.82053 -2.07236
lowerneck -11.055 -5.89863 -3.89211
upperneck -30.5975 -6.39946 7.74401
head -7.30202 -3.23305 3.42376
rclavicle -5.1684e-015 7.95139e-016
rhumerus -61.4336 4.52142 -94.075
rradius 123.801
rwrist 19.1078
rhand -8.97123 -45.9763
rfingers 7.12502
rthumb 16.9741 -75.2546
lclavicle -5.1684e-015 7.95139e-016
lhumerus -58.8331 -17.3357 99.8618
lradius 128.689
lwrist -9.78421
lhand 0.494926 -14.2243
lfingers 7.12502
lthumb 26.0643 14.0074
rfemur -57.5549 -13.6035 26.5585
rtibia 31.5798
rfoot -17.9089 -3.82262
rtoes -7.47838
lfemur -68.452 5.35579 -12.8634
ltibia 42.3717
lfoot -13.638 -1.46872
ltoes -54.754
